<svg width="375" height="45" viewBox="0 0 375 45" fill="none" xmlns="http://www.w3.org/2000/svg">
<g clip-path="url(#clip0_2_2)">
<rect width="375" height="45" fill="white"/>
<path d="M25.7188 13.8281C26.1458 13.8281 26.5104 13.9844 26.8125 14.2969C27.125 14.599 27.2812 14.9635 27.2812 15.3906V15.4219L27.1719 30.3438C27.1615 31.5104 26.9219 32.6094 26.4531 33.6406C25.9948 34.6719 25.3594 35.5833 24.5469 36.375C23.7344 37.1667 22.8021 37.7865 21.75 38.2344C20.7083 38.6823 19.599 38.9062 18.4219 38.9062C17.099 38.9062 15.8333 38.6146 14.625 38.0312C13.4271 37.4583 12.4115 36.651 11.5781 35.6094C11.3385 35.3073 11.2188 34.974 11.2188 34.6094C11.2188 34.1823 11.3698 33.8125 11.6719 33.5C11.9844 33.1979 12.3542 33.0469 12.7812 33.0469C12.9896 33.0469 13.2135 33.1042 13.4531 33.2188C13.7031 33.3333 13.8958 33.4792 14.0312 33.6562C14.5521 34.3021 15.2083 34.8177 16 35.2031C16.8021 35.5885 17.6146 35.7812 18.4375 35.7812C19.4479 35.7812 20.375 35.5312 21.2188 35.0312C22.0729 34.5312 22.7552 33.8646 23.2656 33.0312C23.7865 32.1979 24.0469 31.2865 24.0469 30.2969V28.7656C23.4323 29.724 22.6875 30.3854 21.8125 30.75C20.9479 31.1042 20.0625 31.2812 19.1562 31.2812C18.0208 31.2812 16.9635 31.0365 15.9844 30.5469C15.0156 30.0573 14.1719 29.3958 13.4531 28.5625C12.7344 27.7292 12.1719 26.7865 11.7656 25.7344C11.3698 24.6719 11.1719 23.5781 11.1719 22.4531C11.1719 21.3281 11.3698 20.2552 11.7656 19.2344C12.1719 18.2031 12.7344 17.2865 13.4531 16.4844C14.1719 15.6823 15.0156 15.0469 15.9844 14.5781C16.9531 14.1094 18.0104 13.875 19.1562 13.875C20.1458 13.875 21.0729 14.1042 21.9375 14.5625C22.8021 15.0208 23.5365 15.7188 24.1406 16.6562L24.375 15.4062C24.4583 14.9792 24.5938 14.6094 24.7812 14.2969C24.9688 13.9844 25.2812 13.8281 25.7188 13.8281ZM24.0156 22.4688C24.0156 21.5208 23.8073 20.6354 23.3906 19.8125C22.974 18.9792 22.401 18.3021 21.6719 17.7812C20.9531 17.2604 20.1302 17 19.2031 17C18.2552 17 17.4115 17.2604 16.6719 17.7812C15.9427 18.2917 15.3646 18.9635 14.9375 19.7969C14.5208 20.6198 14.3125 21.5052 14.3125 22.4531C14.3125 23.3906 14.5208 24.2969 14.9375 25.1719C15.3542 26.0365 15.9271 26.75 16.6562 27.3125C17.3854 27.875 18.2188 28.1562 19.1562 28.1562C20.0833 28.1562 20.9115 27.8802 21.6406 27.3281C22.3802 26.776 22.9583 26.0677 23.375 25.2031C23.8021 24.3281 24.0156 23.4167 24.0156 22.4688ZM37.9375 13.9375C39.3229 13.9375 40.5938 14.2812 41.75 14.9688C42.9062 15.6562 43.8333 16.5833 44.5312 17.75C45.2396 18.9062 45.5938 20.1927 45.5938 21.6094C45.5938 21.901 45.5781 22.1979 45.5469 22.5C45.5052 22.8854 45.3281 23.2135 45.0156 23.4844C44.7135 23.7448 44.3698 23.875 43.9844 23.875L33.0625 23.8906C33.2396 24.6406 33.5729 25.3438 34.0625 26C34.5521 26.6562 35.1458 27.1875 35.8438 27.5938C36.5521 28 37.3229 28.2031 38.1562 28.2031C39.0521 28.2031 39.8542 27.9844 40.5625 27.5469C41.2708 27.1094 41.8229 26.6042 42.2188 26.0312C42.3438 25.8333 42.5312 25.6667 42.7812 25.5312C43.0417 25.3958 43.2865 25.3281 43.5156 25.3281C43.9427 25.3281 44.3073 25.4844 44.6094 25.7969C44.9219 26.1094 45.0781 26.4792 45.0781 26.9062C45.0781 27.2396 44.9844 27.5365 44.7969 27.7969C44.151 28.7448 43.2604 29.5677 42.125 30.2656C41 30.9531 39.6927 31.2969 38.2031 31.2969C37.0052 31.2969 35.8906 31.0625 34.8594 30.5938C33.8385 30.125 32.9479 29.4844 32.1875 28.6719C31.4271 27.8594 30.8333 26.9271 30.4062 25.875C29.9896 24.8125 29.7812 23.6927 29.7812 22.5156C29.7812 21.3802 29.9896 20.3021 30.4062 19.2812C30.8229 18.25 31.401 17.3333 32.1406 16.5312C32.8906 15.7292 33.7604 15.099 34.75 14.6406C35.7396 14.1719 36.8021 13.9375 37.9375 13.9375ZM42.375 20.75C42.1771 19.7292 41.6667 18.8594 40.8438 18.1406C40.0208 17.4219 39.0521 17.0625 37.9375 17.0625C36.8021 17.0625 35.7969 17.4323 34.9219 18.1719C34.0573 18.9115 33.474 19.776 33.1719 20.7656L42.375 20.75ZM55.875 13.8906C57.0729 13.8906 58.1875 14.1198 59.2188 14.5781C60.2604 15.0365 61.1719 15.6719 61.9531 16.4844C62.7344 17.2969 63.3438 18.2292 63.7812 19.2812C64.2292 20.3333 64.4531 21.4531 64.4531 22.6406C64.4531 23.8073 64.2292 24.9167 63.7812 25.9688C63.3333 27.0104 62.7135 27.9323 61.9219 28.7344C61.1406 29.526 60.2292 30.151 59.1875 30.6094C58.1562 31.0677 57.0521 31.2969 55.875 31.2969C54.7083 31.2969 53.6042 31.0729 52.5625 30.625C51.5312 30.1771 50.6198 29.5573 49.8281 28.7656C49.0469 27.974 48.4323 27.0573 47.9844 26.0156C47.5365 24.9635 47.3125 23.8385 47.3125 22.6406C47.3125 21.4531 47.5365 20.3333 47.9844 19.2812C48.4323 18.2292 49.0469 17.3021 49.8281 16.5C50.6198 15.6875 51.5312 15.0521 52.5625 14.5938C53.5938 14.125 54.6979 13.8906 55.875 13.8906ZM50.4688 22.6719C50.4688 23.6823 50.7135 24.6042 51.2031 25.4375C51.7031 26.2604 52.3646 26.9167 53.1875 27.4062C54.0104 27.8958 54.9115 28.1406 55.8906 28.1406C56.8906 28.1406 57.7969 27.8906 58.6094 27.3906C59.4323 26.8802 60.0833 26.2083 60.5625 25.375C61.0521 24.5417 61.2969 23.6302 61.2969 22.6406C61.2969 21.6302 61.0573 20.7031 60.5781 19.8594C60.099 19.0052 59.4479 18.3229 58.625 17.8125C57.8125 17.3021 56.8958 17.0469 55.875 17.0469C54.8438 17.0469 53.9219 17.3073 53.1094 17.8281C52.2969 18.3385 51.651 19.0208 51.1719 19.875C50.7031 20.7188 50.4688 21.651 50.4688 22.6719ZM77.1406 15.8594C77.1406 16.6927 76.7396 17.1562 75.9375 17.25C75.6458 17.2812 75.276 17.1875 74.8281 16.9688C74.3802 16.7396 73.9271 16.625 73.4688 16.625C72.5625 16.625 71.8438 16.8594 71.3125 17.3281C70.7812 17.7865 70.401 18.4062 70.1719 19.1875C69.9427 19.9688 69.8281 20.8438 69.8281 21.8125V29.875C69.8281 30.3333 69.6875 30.6979 69.4062 30.9688C69.1354 31.2396 68.7552 31.375 68.2656 31.375C67.7865 31.375 67.4062 31.2396 67.125 30.9688C66.8438 30.6979 66.7031 30.3281 66.7031 29.8594V15.4688C66.7031 15 66.8177 14.6146 67.0469 14.3125C67.2865 14.0104 67.6094 13.8594 68.0156 13.8594C68.2552 13.8594 68.5312 13.9635 68.8438 14.1719C69.1667 14.3698 69.3906 14.7135 69.5156 15.2031L69.6719 16.3281C69.8073 16.0365 70.0677 15.6979 70.4531 15.3125C70.8385 14.9271 71.2969 14.5938 71.8281 14.3125C72.3594 14.0208 72.9115 13.875 73.4844 13.875C74.5469 13.875 75.4219 14 76.1094 14.25C76.7969 14.4896 77.1406 15.026 77.1406 15.8594ZM92.4688 13.8281C92.8958 13.8281 93.2604 13.9844 93.5625 14.2969C93.875 14.599 94.0312 14.9635 94.0312 15.3906V15.4219L93.9219 30.3438C93.9115 31.5104 93.6719 32.6094 93.2031 33.6406C92.7448 34.6719 92.1094 35.5833 91.2969 36.375C90.4844 37.1667 89.5521 37.7865 88.5 38.2344C87.4583 38.6823 86.349 38.9062 85.1719 38.9062C83.849 38.9062 82.5833 38.6146 81.375 38.0312C80.1771 37.4583 79.1615 36.651 78.3281 35.6094C78.0885 35.3073 77.9688 34.974 77.9688 34.6094C77.9688 34.1823 78.1198 33.8125 78.4219 33.5C78.7344 33.1979 79.1042 33.0469 79.5312 33.0469C79.7396 33.0469 79.9635 33.1042 80.2031 33.2188C80.4531 33.3333 80.6458 33.4792 80.7812 33.6562C81.3021 34.3021 81.9583 34.8177 82.75 35.2031C83.5521 35.5885 84.3646 35.7812 85.1875 35.7812C86.1979 35.7812 87.125 35.5312 87.9688 35.0312C88.8229 34.5312 89.5052 33.8646 90.0156 33.0312C90.5365 32.1979 90.7969 31.2865 90.7969 30.2969V28.7656C90.1823 29.724 89.4375 30.3854 88.5625 30.75C87.6979 31.1042 86.8125 31.2812 85.9062 31.2812C84.7708 31.2812 83.7135 31.0365 82.7344 30.5469C81.7656 30.0573 80.9219 29.3958 80.2031 28.5625C79.4844 27.7292 78.9219 26.7865 78.5156 25.7344C78.1198 24.6719 77.9219 23.5781 77.9219 22.4531C77.9219 21.3281 78.1198 20.2552 78.5156 19.2344C78.9219 18.2031 79.4844 17.2865 80.2031 16.4844C80.9219 15.6823 81.7656 15.0469 82.7344 14.5781C83.7031 14.1094 84.7604 13.875 85.9062 13.875C86.8958 13.875 87.8229 14.1042 88.6875 14.5625C89.5521 15.0208 90.2865 15.7188 90.8906 16.6562L91.125 15.4062C91.2083 14.9792 91.3438 14.6094 91.5312 14.2969C91.7188 13.9844 92.0312 13.8281 92.4688 13.8281ZM90.7656 22.4688C90.7656 21.5208 90.5573 20.6354 90.1406 19.8125C89.724 18.9792 89.151 18.3021 88.4219 17.7812C87.7031 17.2604 86.8802 17 85.9531 17C85.0052 17 84.1615 17.2604 83.4219 17.7812C82.6927 18.2917 82.1146 18.9635 81.6875 19.7969C81.2708 20.6198 81.0625 21.5052 81.0625 22.4531C81.0625 23.3906 81.2708 24.2969 81.6875 25.1719C82.1042 26.0365 82.6771 26.75 83.4062 27.3125C84.1354 27.875 84.9688 28.1562 85.9062 28.1562C86.8333 28.1562 87.6615 27.8802 88.3906 27.3281C89.1302 26.776 89.7083 26.0677 90.125 25.2031C90.5521 24.3281 90.7656 23.4167 90.7656 22.4688ZM104.688 13.9375C106.073 13.9375 107.344 14.2812 108.5 14.9688C109.656 15.6562 110.583 16.5833 111.281 17.75C111.99 18.9062 112.344 20.1927 112.344 21.6094C112.344 21.901 112.328 22.1979 112.297 22.5C112.255 22.8854 112.078 23.2135 111.766 23.4844C111.464 23.7448 111.12 23.875 110.734 23.875L99.8125 23.8906C99.9896 24.6406 100.323 25.3438 100.812 26C101.302 26.6562 101.896 27.1875 102.594 27.5938C103.302 28 104.073 28.2031 104.906 28.2031C105.802 28.2031 106.604 27.9844 107.312 27.5469C108.021 27.1094 108.573 26.6042 108.969 26.0312C109.094 25.8333 109.281 25.6667 109.531 25.5312C109.792 25.3958 110.036 25.3281 110.266 25.3281C110.693 25.3281 111.057 25.4844 111.359 25.7969C111.672 26.1094 111.828 26.4792 111.828 26.9062C111.828 27.2396 111.734 27.5365 111.547 27.7969C110.901 28.7448 110.01 29.5677 108.875 30.2656C107.75 30.9531 106.443 31.2969 104.953 31.2969C103.755 31.2969 102.641 31.0625 101.609 30.5938C100.589 30.125 99.6979 29.4844 98.9375 28.6719C98.1771 27.8594 97.5833 26.9271 97.1562 25.875C96.7396 24.8125 96.5312 23.6927 96.5312 22.5156C96.5312 21.3802 96.7396 20.3021 97.1562 19.2812C97.5729 18.25 98.151 17.3333 98.8906 16.5312C99.6406 15.7292 100.51 15.099 101.5 14.6406C102.49 14.1719 103.552 13.9375 104.688 13.9375ZM109.125 20.75C108.927 19.7292 108.417 18.8594 107.594 18.1406C106.771 17.4219 105.802 17.0625 104.688 17.0625C103.552 17.0625 102.547 17.4323 101.672 18.1719C100.807 18.9115 100.224 19.776 99.9219 20.7656L109.125 20.75ZM125.656 28.8906C125.094 29.4323 124.422 29.9792 123.641 30.5312C122.859 31.0729 121.943 31.3438 120.891 31.3438C119.526 31.3438 118.391 30.9844 117.484 30.2656C116.578 29.5365 115.911 28.6927 115.484 27.7344C115.151 26.974 114.948 26.224 114.875 25.4844C114.812 24.7344 114.781 24.0312 114.781 23.375V15.4844C114.781 15.0573 114.932 14.6927 115.234 14.3906C115.547 14.0781 115.917 13.9219 116.344 13.9219C116.771 13.9219 117.135 14.0781 117.438 14.3906C117.75 14.6927 117.906 15.0573 117.906 15.4844V23.375C117.906 23.9792 117.932 24.5469 117.984 25.0781C118.047 25.599 118.167 26.0573 118.344 26.4531C118.552 26.9115 118.865 27.3229 119.281 27.6875C119.698 28.0417 120.224 28.2188 120.859 28.2188C122.401 28.2188 123.583 27.6302 124.406 26.4531C125.24 25.276 125.651 23.6875 125.641 21.6875L125.625 15.4531C125.625 15.026 125.776 14.6615 126.078 14.3594C126.391 14.0469 126.76 13.8906 127.188 13.8906C127.625 13.8906 127.995 14.0469 128.297 14.3594C128.599 14.6615 128.75 15.0312 128.75 15.4688L128.781 29.8281C128.781 30.2552 128.661 30.625 128.422 30.9375C128.193 31.2396 127.865 31.3906 127.438 31.3906C127.01 31.3906 126.682 31.2396 126.453 30.9375C126.224 30.625 126.047 30.2552 125.922 29.8281L125.656 28.8906ZM133.375 31.0469C132.948 31.0469 132.578 30.8958 132.266 30.5938C131.964 30.2812 131.812 29.9115 131.812 29.4844C131.812 28.9531 131.974 28.4062 132.297 27.8438C132.62 27.2708 133.021 26.7188 133.5 26.1875C133.979 25.6458 134.464 25.151 134.953 24.7031C135.443 24.2552 135.854 23.8854 136.188 23.5938C136.844 23.0208 137.552 22.4896 138.312 22C139.073 21.5 139.792 20.9792 140.469 20.4375C141.156 19.8854 141.714 19.2604 142.141 18.5625C142.578 17.8542 142.797 17.0156 142.797 16.0469C142.797 15.2865 142.625 14.6042 142.281 14C141.938 13.3958 141.474 12.9167 140.891 12.5625C140.307 12.1979 139.651 12.0156 138.922 12.0156C138.016 12.0156 137.234 12.3021 136.578 12.875C135.932 13.4479 135.531 14.099 135.375 14.8281C135.302 15.1615 135.115 15.4531 134.812 15.7031C134.521 15.9531 134.193 16.0781 133.828 16.0781C133.401 16.0781 133.031 15.9271 132.719 15.625C132.417 15.3229 132.266 14.9635 132.266 14.5469C132.266 13.776 132.458 13.0521 132.844 12.375C133.229 11.6875 133.74 11.0833 134.375 10.5625C135.021 10.0417 135.74 9.63542 136.531 9.34375C137.323 9.04167 138.13 8.89062 138.953 8.89062C140.307 8.89062 141.505 9.20833 142.547 9.84375C143.599 10.4688 144.422 11.3177 145.016 12.3906C145.62 13.4635 145.922 14.6615 145.922 15.9844C145.922 17.3594 145.656 18.5417 145.125 19.5312C144.594 20.5208 143.922 21.3854 143.109 22.125C142.297 22.8542 141.458 23.5156 140.594 24.1094C139.729 24.7031 138.958 25.2917 138.281 25.875C137.531 26.5417 136.87 27.224 136.297 27.9219H145.438C145.865 27.9219 146.229 28.0781 146.531 28.3906C146.844 28.6927 147 29.0573 147 29.4844C147 29.9115 146.844 30.2812 146.531 30.5938C146.229 30.8958 145.865 31.0469 145.438 31.0469H133.375ZM158.422 31.3906C156.964 31.3906 155.708 31.0833 154.656 30.4688C153.604 29.8438 152.745 29.0052 152.078 27.9531C151.411 26.8906 150.917 25.7083 150.594 24.4062C150.281 23.0938 150.125 21.75 150.125 20.375C150.125 18.9479 150.286 17.5781 150.609 16.2656C150.943 14.9427 151.453 13.7656 152.141 12.7344C152.839 11.6927 153.729 10.8698 154.812 10.2656C155.896 9.66146 157.193 9.35938 158.703 9.35938C160.13 9.39062 161.354 9.71875 162.375 10.3438C163.406 10.9583 164.25 11.7812 164.906 12.8125C165.562 13.8438 166.047 15 166.359 16.2812C166.672 17.5625 166.828 18.8854 166.828 20.25C166.828 21.6875 166.667 23.0729 166.344 24.4062C166.021 25.7292 165.521 26.9167 164.844 27.9688C164.167 29.0208 163.297 29.8542 162.234 30.4688C161.172 31.0833 159.901 31.3906 158.422 31.3906ZM158.484 28.2656C159.724 28.2656 160.724 27.8906 161.484 27.1406C162.255 26.3802 162.818 25.3854 163.172 24.1562C163.526 22.9167 163.703 21.5729 163.703 20.125C163.703 18.7708 163.521 17.5156 163.156 16.3594C162.802 15.1927 162.245 14.2552 161.484 13.5469C160.724 12.8385 159.74 12.4844 158.531 12.4844C157.302 12.4844 156.297 12.849 155.516 13.5781C154.734 14.2969 154.161 15.25 153.797 16.4375C153.432 17.625 153.25 18.9271 153.25 20.3438C153.25 21.7604 153.427 23.0729 153.781 24.2812C154.146 25.4792 154.714 26.4427 155.484 27.1719C156.255 27.901 157.255 28.2656 158.484 28.2656ZM171.531 31.0469C171.104 31.0469 170.734 30.8958 170.422 30.5938C170.12 30.2812 169.969 29.9115 169.969 29.4844C169.969 28.9531 170.13 28.4062 170.453 27.8438C170.776 27.2708 171.177 26.7188 171.656 26.1875C172.135 25.6458 172.62 25.151 173.109 24.7031C173.599 24.2552 174.01 23.8854 174.344 23.5938C175 23.0208 175.708 22.4896 176.469 22C177.229 21.5 177.948 20.9792 178.625 20.4375C179.312 19.8854 179.87 19.2604 180.297 18.5625C180.734 17.8542 180.953 17.0156 180.953 16.0469C180.953 15.2865 180.781 14.6042 180.438 14C180.094 13.3958 179.63 12.9167 179.047 12.5625C178.464 12.1979 177.807 12.0156 177.078 12.0156C176.172 12.0156 175.391 12.3021 174.734 12.875C174.089 13.4479 173.688 14.099 173.531 14.8281C173.458 15.1615 173.271 15.4531 172.969 15.7031C172.677 15.9531 172.349 16.0781 171.984 16.0781C171.557 16.0781 171.188 15.9271 170.875 15.625C170.573 15.3229 170.422 14.9635 170.422 14.5469C170.422 13.776 170.615 13.0521 171 12.375C171.385 11.6875 171.896 11.0833 172.531 10.5625C173.177 10.0417 173.896 9.63542 174.688 9.34375C175.479 9.04167 176.286 8.89062 177.109 8.89062C178.464 8.89062 179.661 9.20833 180.703 9.84375C181.755 10.4688 182.578 11.3177 183.172 12.3906C183.776 13.4635 184.078 14.6615 184.078 15.9844C184.078 17.3594 183.812 18.5417 183.281 19.5312C182.75 20.5208 182.078 21.3854 181.266 22.125C180.453 22.8542 179.615 23.5156 178.75 24.1094C177.885 24.7031 177.115 25.2917 176.438 25.875C175.688 26.5417 175.026 27.224 174.453 27.9219H183.594C184.021 27.9219 184.385 28.0781 184.688 28.3906C185 28.6927 185.156 29.0573 185.156 29.4844C185.156 29.9115 185 30.2812 184.688 30.5938C184.385 30.8958 184.021 31.0469 183.594 31.0469H171.531ZM189.703 15.6406C189.349 15.6406 189.031 15.4844 188.75 15.1719C188.469 14.849 188.328 14.5208 188.328 14.1875C188.328 13.8542 188.417 13.5208 188.594 13.1875C188.781 12.8438 189.068 12.6354 189.453 12.5625C189.849 12.4792 190.255 12.25 190.672 11.875C191.099 11.4896 191.51 10.9323 191.906 10.2031C192.219 9.61979 192.651 9.32812 193.203 9.32812C193.651 9.32812 194.042 9.46354 194.375 9.73438C194.719 9.99479 194.891 10.3542 194.891 10.8125L194.875 28.0938H196.734C197.099 28.0938 197.401 28.2656 197.641 28.6094C197.88 28.9427 198 29.2656 198 29.5781C198 29.9844 197.854 30.3333 197.562 30.625C197.271 30.9167 196.922 31.0625 196.516 31.0625H189.766C189.359 31.0625 189.01 30.9167 188.719 30.625C188.427 30.3333 188.281 29.9844 188.281 29.5781C188.281 29.2656 188.401 28.9427 188.641 28.6094C188.88 28.2656 189.182 28.0938 189.547 28.0938H191.75V14.9844C191.458 15.151 191.156 15.3021 190.844 15.4375C190.531 15.5729 190.151 15.6406 189.703 15.6406ZM213.094 30.125C211.833 30.125 210.698 29.8229 209.688 29.2188C208.688 28.6042 207.896 27.7865 207.312 26.7656C206.729 25.7344 206.438 24.5885 206.438 23.3281C206.438 22.1927 206.729 21.1302 207.312 20.1406C207.906 19.151 208.688 18.349 209.656 17.7344C210.625 17.1094 211.667 16.7969 212.781 16.7969C214.167 16.7969 215.396 17.1406 216.469 17.8281C216.583 17.5156 216.771 17.2604 217.031 17.0625C217.302 16.8646 217.604 16.7656 217.938 16.7656C218.365 16.7656 218.729 16.9219 219.031 17.2344C219.344 17.5365 219.5 17.901 219.5 18.3281V25.9844C219.5 26.2552 219.646 26.5052 219.938 26.7344C220.229 26.9531 220.568 27.0625 220.953 27.0625C221.682 27.0625 222.219 26.724 222.562 26.0469C222.917 25.3594 223.094 24.6042 223.094 23.7812C223.094 22.4479 222.828 21.1927 222.297 20.0156C221.776 18.8385 221.068 17.8073 220.172 16.9219C219.276 16.026 218.26 15.3281 217.125 14.8281C216 14.3177 214.833 14.0625 213.625 14.0625C212.208 14.0625 210.901 14.3229 209.703 14.8438C208.516 15.3542 207.479 16.0573 206.594 16.9531C205.719 17.8385 205.036 18.849 204.547 19.9844C204.068 21.1094 203.828 22.2812 203.828 23.5C203.828 24.7917 204.052 26.0208 204.5 27.1875C204.958 28.3438 205.599 29.3698 206.422 30.2656C207.255 31.1615 208.24 31.8646 209.375 32.375C210.521 32.8854 211.776 33.1406 213.141 33.1406C214.203 33.1406 215.344 32.9323 216.562 32.5156C216.75 32.4531 216.927 32.401 217.094 32.3594C217.26 32.3177 217.422 32.2969 217.578 32.2969C217.995 32.2969 218.307 32.4323 218.516 32.7031C218.724 32.9844 218.828 33.3333 218.828 33.75C218.828 34.5938 218.432 35.1667 217.641 35.4688C216.141 36.0417 214.641 36.3281 213.141 36.3281C211.339 36.3281 209.677 35.9844 208.156 35.2969C206.646 34.6094 205.333 33.6667 204.219 32.4688C203.104 31.2812 202.24 29.9219 201.625 28.3906C201.021 26.849 200.719 25.2344 200.719 23.5469C200.719 21.9531 201.031 20.401 201.656 18.8906C202.292 17.3802 203.182 16.0156 204.328 14.7969C205.484 13.5781 206.849 12.6094 208.422 11.8906C209.995 11.1719 211.729 10.8125 213.625 10.8125C215.208 10.8125 216.714 11.125 218.141 11.75C219.568 12.375 220.854 13.2396 222 14.3438C223.146 15.4375 224.083 16.6927 224.812 18.1094C225.552 19.526 226.01 21.026 226.188 22.6094C226.208 22.8073 226.224 23.0052 226.234 23.2031C226.245 23.401 226.25 23.5885 226.25 23.7656C226.25 24.849 226.047 25.8854 225.641 26.875C225.245 27.8646 224.651 28.6719 223.859 29.2969C223.078 29.9219 222.109 30.2344 220.953 30.2344C220.193 30.2344 219.505 30.0833 218.891 29.7812C218.276 29.4688 217.75 29.0312 217.312 28.4688C216.781 28.9375 216.161 29.3333 215.453 29.6562C214.745 29.9688 213.958 30.125 213.094 30.125ZM212.969 19.9531C212.354 19.9531 211.786 20.1146 211.266 20.4375C210.745 20.7604 210.328 21.1875 210.016 21.7188C209.714 22.2396 209.562 22.8177 209.562 23.4531C209.562 24.3906 209.875 25.2135 210.5 25.9219C211.135 26.6302 211.958 26.9844 212.969 26.9844C213.958 26.9844 214.776 26.651 215.422 25.9844C216.078 25.3073 216.411 24.4792 216.422 23.5C216.411 22.5104 216.073 21.6719 215.406 20.9844C214.74 20.2969 213.927 19.9531 212.969 19.9531ZM243.156 13.8281C243.583 13.8281 243.948 13.9844 244.25 14.2969C244.562 14.599 244.719 14.9635 244.719 15.3906V15.4219L244.609 30.3438C244.599 31.5104 244.359 32.6094 243.891 33.6406C243.432 34.6719 242.797 35.5833 241.984 36.375C241.172 37.1667 240.24 37.7865 239.188 38.2344C238.146 38.6823 237.036 38.9062 235.859 38.9062C234.536 38.9062 233.271 38.6146 232.062 38.0312C230.865 37.4583 229.849 36.651 229.016 35.6094C228.776 35.3073 228.656 34.974 228.656 34.6094C228.656 34.1823 228.807 33.8125 229.109 33.5C229.422 33.1979 229.792 33.0469 230.219 33.0469C230.427 33.0469 230.651 33.1042 230.891 33.2188C231.141 33.3333 231.333 33.4792 231.469 33.6562C231.99 34.3021 232.646 34.8177 233.438 35.2031C234.24 35.5885 235.052 35.7812 235.875 35.7812C236.885 35.7812 237.812 35.5312 238.656 35.0312C239.51 34.5312 240.193 33.8646 240.703 33.0312C241.224 32.1979 241.484 31.2865 241.484 30.2969V28.7656C240.87 29.724 240.125 30.3854 239.25 30.75C238.385 31.1042 237.5 31.2812 236.594 31.2812C235.458 31.2812 234.401 31.0365 233.422 30.5469C232.453 30.0573 231.609 29.3958 230.891 28.5625C230.172 27.7292 229.609 26.7865 229.203 25.7344C228.807 24.6719 228.609 23.5781 228.609 22.4531C228.609 21.3281 228.807 20.2552 229.203 19.2344C229.609 18.2031 230.172 17.2865 230.891 16.4844C231.609 15.6823 232.453 15.0469 233.422 14.5781C234.391 14.1094 235.448 13.875 236.594 13.875C237.583 13.875 238.51 14.1042 239.375 14.5625C240.24 15.0208 240.974 15.7188 241.578 16.6562L241.812 15.4062C241.896 14.9792 242.031 14.6094 242.219 14.2969C242.406 13.9844 242.719 13.8281 243.156 13.8281ZM241.453 22.4688C241.453 21.5208 241.245 20.6354 240.828 19.8125C240.411 18.9792 239.839 18.3021 239.109 17.7812C238.391 17.2604 237.568 17 236.641 17C235.693 17 234.849 17.2604 234.109 17.7812C233.38 18.2917 232.802 18.9635 232.375 19.7969C231.958 20.6198 231.75 21.5052 231.75 22.4531C231.75 23.3906 231.958 24.2969 232.375 25.1719C232.792 26.0365 233.365 26.75 234.094 27.3125C234.823 27.875 235.656 28.1562 236.594 28.1562C237.521 28.1562 238.349 27.8802 239.078 27.3281C239.818 26.776 240.396 26.0677 240.812 25.2031C241.24 24.3281 241.453 23.4167 241.453 22.4688ZM254.344 13.875C255.354 13.875 256.24 14.1198 257 14.6094C257.771 15.099 258.401 15.6927 258.891 16.3906C259.474 15.7135 260.177 15.125 261 14.625C261.823 14.1146 262.74 13.8594 263.75 13.8594C265.083 13.8594 266.188 14.2188 267.062 14.9375C267.948 15.6458 268.604 16.5781 269.031 17.7344C269.458 18.8906 269.672 20.1406 269.672 21.4844L269.688 29.8125C269.688 30.2292 269.536 30.5885 269.234 30.8906C268.932 31.1927 268.562 31.3438 268.125 31.3438C267.688 31.3438 267.318 31.1927 267.016 30.8906C266.714 30.5885 266.562 30.2292 266.562 29.8125L266.547 21.5156C266.547 20.724 266.474 19.9844 266.328 19.2969C266.182 18.599 265.917 18.0365 265.531 17.6094C265.146 17.1823 264.589 16.9688 263.859 16.9688C263.089 16.9688 262.427 17.1823 261.875 17.6094C261.333 18.0365 260.917 18.599 260.625 19.2969C260.344 19.9844 260.203 20.7292 260.203 21.5312L260.219 29.8594C260.219 30.276 260.062 30.6354 259.75 30.9375C259.448 31.2292 259.083 31.375 258.656 31.375C258.219 31.375 257.849 31.224 257.547 30.9219C257.245 30.6198 257.094 30.2604 257.094 29.8438V21.5469C257.094 20.5677 256.927 19.7396 256.594 19.0625C256.271 18.3854 255.849 17.875 255.328 17.5312C254.818 17.1771 254.292 17 253.75 17C252.979 17 252.286 17.3594 251.672 18.0781C251.057 18.7969 250.75 19.9167 250.75 21.4375V29.8594C250.75 30.276 250.594 30.6354 250.281 30.9375C249.979 31.2292 249.615 31.375 249.188 31.375C248.76 31.375 248.391 31.224 248.078 30.9219C247.776 30.6198 247.625 30.2604 247.625 29.8438V15.3906C247.625 14.9635 247.703 14.6042 247.859 14.3125C248.026 14.0104 248.328 13.8594 248.766 13.8594C249.109 13.8594 249.427 13.9688 249.719 14.1875C250.01 14.4062 250.245 14.7708 250.422 15.2812L250.719 16.1406C251.052 15.4531 251.562 14.9062 252.25 14.5C252.948 14.0833 253.646 13.875 254.344 13.875ZM280.922 13.8125C281.693 13.8125 282.443 13.9688 283.172 14.2812C283.911 14.5833 284.568 14.9688 285.141 15.4375C285.724 15.8958 286.156 16.3698 286.438 16.8594L286.609 15.3594C286.609 14.9323 286.734 14.5677 286.984 14.2656C287.234 13.9531 287.573 13.7969 288 13.7969C288.427 13.7969 288.792 13.9531 289.094 14.2656C289.406 14.5677 289.562 14.9323 289.562 15.3594V15.3906L289.531 29.8594C289.531 30.2865 289.375 30.6562 289.062 30.9688C288.76 31.2708 288.396 31.4219 287.969 31.4219C287.542 31.4219 287.203 31.2708 286.953 30.9688C286.703 30.6562 286.578 30.2865 286.578 29.8594L286.406 28.6094C285.865 29.5365 285.073 30.2292 284.031 30.6875C282.99 31.1354 281.943 31.3594 280.891 31.3594C279.714 31.3594 278.609 31.1302 277.578 30.6719C276.547 30.2031 275.641 29.5625 274.859 28.75C274.078 27.9375 273.464 27.0052 273.016 25.9531C272.578 24.901 272.359 23.7917 272.359 22.625C272.359 21.4688 272.573 20.3646 273 19.3125C273.438 18.25 274.042 17.3073 274.812 16.4844C275.594 15.651 276.5 15 277.531 14.5312C278.573 14.0521 279.703 13.8125 280.922 13.8125ZM286.312 22.5938C286.312 21.5729 286.073 20.6354 285.594 19.7812C285.125 18.9271 284.484 18.2396 283.672 17.7188C282.859 17.1979 281.932 16.9375 280.891 16.9375C279.87 16.9375 278.948 17.1979 278.125 17.7188C277.302 18.2396 276.651 18.9323 276.172 19.7969C275.693 20.651 275.453 21.5781 275.453 22.5781C275.453 23.5885 275.698 24.526 276.188 25.3906C276.677 26.2448 277.333 26.9323 278.156 27.4531C278.99 27.974 279.906 28.2344 280.906 28.2344C281.906 28.2344 282.812 27.974 283.625 27.4531C284.448 26.9323 285.099 26.2448 285.578 25.3906C286.068 24.526 286.312 23.5938 286.312 22.5938ZM294.297 12.2812C293.818 12.2812 293.427 12.1354 293.125 11.8438C292.823 11.5417 292.667 11.1719 292.656 10.7344L292.625 9.54688C292.625 9.15104 292.802 8.83333 293.156 8.59375C293.51 8.34375 293.849 8.21875 294.172 8.21875C294.609 8.21875 294.974 8.36979 295.266 8.67188C295.568 8.97396 295.724 9.33854 295.734 9.76562L295.75 10.7031C295.75 11.1094 295.615 11.474 295.344 11.7969C295.073 12.1198 294.724 12.2812 294.297 12.2812ZM292.609 15.2344C292.609 14.8385 292.776 14.5156 293.109 14.2656C293.443 14.0156 293.766 13.8906 294.078 13.8906C294.536 13.8906 294.927 14.026 295.25 14.2969C295.573 14.5677 295.734 14.9271 295.734 15.375V15.3906L295.766 29.8594C295.766 30.276 295.609 30.6302 295.297 30.9219C294.995 31.2135 294.63 31.3594 294.203 31.3594C293.766 31.3594 293.396 31.2135 293.094 30.9219C292.792 30.6198 292.641 30.2604 292.641 29.8438L292.609 15.2344ZM300.219 8.20312C300.719 8.20312 301.12 8.36979 301.422 8.70312C301.724 9.02604 301.87 9.38021 301.859 9.76562V29.8906C301.859 30.3073 301.693 30.6458 301.359 30.9062C301.036 31.1562 300.714 31.2812 300.391 31.2812C299.943 31.2812 299.552 31.1354 299.219 30.8438C298.896 30.5521 298.734 30.1771 298.734 29.7188V9.76562C298.734 9.36979 298.875 9.01042 299.156 8.6875C299.448 8.36458 299.802 8.20312 300.219 8.20312ZM307.156 31.0625C306.448 31.0625 305.828 30.8125 305.297 30.3125C304.776 29.8125 304.516 29.2031 304.516 28.4844C304.516 27.7656 304.776 27.1615 305.297 26.6719C305.828 26.1719 306.448 25.9219 307.156 25.9219C307.865 25.9219 308.484 26.1719 309.016 26.6719C309.547 27.1615 309.812 27.7656 309.812 28.4844C309.812 29.2031 309.547 29.8125 309.016 30.3125C308.484 30.8125 307.865 31.0625 307.156 31.0625ZM311.938 22.5781C311.938 21.4219 312.141 20.3229 312.547 19.2812C312.953 18.2396 313.526 17.3125 314.266 16.5C315.005 15.6875 315.865 15.0469 316.844 14.5781C317.833 14.1094 318.906 13.875 320.062 13.875C321.208 13.875 322.245 14.099 323.172 14.5469C324.109 14.9844 324.911 15.5677 325.578 16.2969C326.255 17.0156 326.76 17.8021 327.094 18.6562C327.167 18.8333 327.203 19.0312 327.203 19.25C327.203 19.6771 327.047 20.0469 326.734 20.3594C326.432 20.6615 326.068 20.8125 325.641 20.8125C325.349 20.8125 325.062 20.7135 324.781 20.5156C324.5 20.3177 324.302 20.0781 324.188 19.7969C323.896 19.0469 323.385 18.3958 322.656 17.8438C321.938 17.2812 321.073 17 320.062 17C319.115 17 318.26 17.2656 317.5 17.7969C316.75 18.3177 316.156 19 315.719 19.8438C315.281 20.6875 315.062 21.599 315.062 22.5781C315.062 23.5677 315.286 24.5 315.734 25.375C316.182 26.2396 316.797 26.9427 317.578 27.4844C318.359 28.0156 319.24 28.2812 320.219 28.2812C321.177 28.2812 322.005 28.0417 322.703 27.5625C323.401 27.0729 323.927 26.5052 324.281 25.8594C324.406 25.6302 324.604 25.4375 324.875 25.2812C325.146 25.1146 325.411 25.0312 325.672 25.0312C326.099 25.0312 326.464 25.1875 326.766 25.5C327.078 25.8021 327.234 26.1667 327.234 26.5938C327.234 26.8542 327.167 27.1094 327.031 27.3594C326.438 28.4531 325.552 29.401 324.375 30.2031C323.198 31.0052 321.812 31.4062 320.219 31.4062C319.031 31.4062 317.932 31.1719 316.922 30.7031C315.922 30.224 315.047 29.5729 314.297 28.75C313.557 27.9271 312.979 26.9896 312.562 25.9375C312.146 24.875 311.938 23.7552 311.938 22.5781ZM337.5 13.8906C338.698 13.8906 339.812 14.1198 340.844 14.5781C341.885 15.0365 342.797 15.6719 343.578 16.4844C344.359 17.2969 344.969 18.2292 345.406 19.2812C345.854 20.3333 346.078 21.4531 346.078 22.6406C346.078 23.8073 345.854 24.9167 345.406 25.9688C344.958 27.0104 344.339 27.9323 343.547 28.7344C342.766 29.526 341.854 30.151 340.812 30.6094C339.781 31.0677 338.677 31.2969 337.5 31.2969C336.333 31.2969 335.229 31.0729 334.188 30.625C333.156 30.1771 332.245 29.5573 331.453 28.7656C330.672 27.974 330.057 27.0573 329.609 26.0156C329.161 24.9635 328.938 23.8385 328.938 22.6406C328.938 21.4531 329.161 20.3333 329.609 19.2812C330.057 18.2292 330.672 17.3021 331.453 16.5C332.245 15.6875 333.156 15.0521 334.188 14.5938C335.219 14.125 336.323 13.8906 337.5 13.8906ZM332.094 22.6719C332.094 23.6823 332.339 24.6042 332.828 25.4375C333.328 26.2604 333.99 26.9167 334.812 27.4062C335.635 27.8958 336.536 28.1406 337.516 28.1406C338.516 28.1406 339.422 27.8906 340.234 27.3906C341.057 26.8802 341.708 26.2083 342.188 25.375C342.677 24.5417 342.922 23.6302 342.922 22.6406C342.922 21.6302 342.682 20.7031 342.203 19.8594C341.724 19.0052 341.073 18.3229 340.25 17.8125C339.438 17.3021 338.521 17.0469 337.5 17.0469C336.469 17.0469 335.547 17.3073 334.734 17.8281C333.922 18.3385 333.276 19.0208 332.797 19.875C332.328 20.7188 332.094 21.651 332.094 22.6719ZM354.906 13.875C355.917 13.875 356.802 14.1198 357.562 14.6094C358.333 15.099 358.964 15.6927 359.453 16.3906C360.036 15.7135 360.74 15.125 361.562 14.625C362.385 14.1146 363.302 13.8594 364.312 13.8594C365.646 13.8594 366.75 14.2188 367.625 14.9375C368.51 15.6458 369.167 16.5781 369.594 17.7344C370.021 18.8906 370.234 20.1406 370.234 21.4844L370.25 29.8125C370.25 30.2292 370.099 30.5885 369.797 30.8906C369.495 31.1927 369.125 31.3438 368.688 31.3438C368.25 31.3438 367.88 31.1927 367.578 30.8906C367.276 30.5885 367.125 30.2292 367.125 29.8125L367.109 21.5156C367.109 20.724 367.036 19.9844 366.891 19.2969C366.745 18.599 366.479 18.0365 366.094 17.6094C365.708 17.1823 365.151 16.9688 364.422 16.9688C363.651 16.9688 362.99 17.1823 362.438 17.6094C361.896 18.0365 361.479 18.599 361.188 19.2969C360.906 19.9844 360.766 20.7292 360.766 21.5312L360.781 29.8594C360.781 30.276 360.625 30.6354 360.312 30.9375C360.01 31.2292 359.646 31.375 359.219 31.375C358.781 31.375 358.411 31.224 358.109 30.9219C357.807 30.6198 357.656 30.2604 357.656 29.8438V21.5469C357.656 20.5677 357.49 19.7396 357.156 19.0625C356.833 18.3854 356.411 17.875 355.891 17.5312C355.38 17.1771 354.854 17 354.312 17C353.542 17 352.849 17.3594 352.234 18.0781C351.62 18.7969 351.312 19.9167 351.312 21.4375V29.8594C351.312 30.276 351.156 30.6354 350.844 30.9375C350.542 31.2292 350.177 31.375 349.75 31.375C349.323 31.375 348.953 31.224 348.641 30.9219C348.339 30.6198 348.188 30.2604 348.188 29.8438V15.3906C348.188 14.9635 348.266 14.6042 348.422 14.3125C348.589 14.0104 348.891 13.8594 349.328 13.8594C349.672 13.8594 349.99 13.9688 350.281 14.1875C350.573 14.4062 350.807 14.7708 350.984 15.2812L351.281 16.1406C351.615 15.4531 352.125 14.9062 352.812 14.5C353.51 14.0833 354.208 13.875 354.906 13.875Z" fill="url(#paint0_linear_2_2)"/>
</g>
<defs>
<linearGradient id="paint0_linear_2_2" x1="10" y1="31.5" x2="397" y2="31.5" gradientUnits="userSpaceOnUse">
<stop stop-color="#0894FF"/>
<stop offset="0.34" stop-color="#C959DD"/>
<stop offset="0.68" stop-color="#FF2E54"/>
<stop offset="0.99" stop-color="#FF9004"/>
</linearGradient>
<clipPath id="clip0_2_2">
<rect width="375" height="45" fill="white"/>
</clipPath>
</defs>
</svg>
